<svg id="visual" viewBox="0 0 900 450" width="900" height="450" xmlns="http://www.w3.org/2000/svg" xmlns:xlink="http://www.w3.org/1999/xlink" version="1.1"><rect x="0" y="0" width="900" height="450" fill="#504945"></rect><path d="M813 0L789 0L789 20L827 20L827 39L726 39L726 59L796 59L796 78L858 78L858 98L620 98L620 117L720 117L720 137L751 137L751 157L822 157L822 176L862 176L862 196L867 196L867 215L745 215L745 235L751 235L751 254L819 254L819 274L763 274L763 293L804 293L804 313L749 313L749 333L627 333L627 352L678 352L678 372L759 372L759 391L880 391L880 411L791 411L791 430L623 430L623 450L0 450L0 430L0 430L0 411L0 411L0 391L0 391L0 372L0 372L0 352L0 352L0 333L0 333L0 313L0 313L0 293L0 293L0 274L0 274L0 254L0 254L0 235L0 235L0 215L0 215L0 196L0 196L0 176L0 176L0 157L0 157L0 137L0 137L0 117L0 117L0 98L0 98L0 78L0 78L0 59L0 59L0 39L0 39L0 20L0 20L0 0L0 0Z" fill="#fe8019"></path><path d="M635 0L757 0L757 20L661 20L661 39L609 39L609 59L600 59L600 78L659 78L659 98L635 98L635 117L734 117L734 137L718 137L718 157L572 157L572 176L535 176L535 196L564 196L564 215L658 215L658 235L638 235L638 254L710 254L710 274L689 274L689 293L665 293L665 313L545 313L545 333L626 333L626 352L681 352L681 372L516 372L516 391L558 391L558 411L547 411L547 430L771 430L771 450L0 450L0 430L0 430L0 411L0 411L0 391L0 391L0 372L0 372L0 352L0 352L0 333L0 333L0 313L0 313L0 293L0 293L0 274L0 274L0 254L0 254L0 235L0 235L0 215L0 215L0 196L0 196L0 176L0 176L0 157L0 157L0 137L0 137L0 117L0 117L0 98L0 98L0 78L0 78L0 59L0 59L0 39L0 39L0 20L0 20L0 0L0 0Z" fill="#fe781e"></path><path d="M537 0L517 0L517 20L616 20L616 39L565 39L565 59L527 59L527 78L527 78L527 98L646 98L646 117L648 117L648 137L431 137L431 157L429 157L429 176L544 176L544 196L466 196L466 215L655 215L655 235L424 235L424 254L532 254L532 274L662 274L662 293L476 293L476 313L660 313L660 333L636 333L636 352L489 352L489 372L580 372L580 391L667 391L667 411L603 411L603 430L433 430L433 450L0 450L0 430L0 430L0 411L0 411L0 391L0 391L0 372L0 372L0 352L0 352L0 333L0 333L0 313L0 313L0 293L0 293L0 274L0 274L0 254L0 254L0 235L0 235L0 215L0 215L0 196L0 196L0 176L0 176L0 157L0 157L0 137L0 137L0 117L0 117L0 98L0 98L0 78L0 78L0 59L0 59L0 39L0 39L0 20L0 20L0 0L0 0Z" fill="#fe6f22"></path><path d="M328 0L358 0L358 20L465 20L465 39L354 39L354 59L361 59L361 78L491 78L491 98L530 98L530 117L389 117L389 137L461 137L461 157L501 157L501 176L552 176L552 196L398 196L398 215L555 215L555 235L485 235L485 254L399 254L399 274L424 274L424 293L416 293L416 313L500 313L500 333L307 333L307 352L432 352L432 372L321 372L321 391L545 391L545 411L323 411L323 430L356 430L356 450L0 450L0 430L0 430L0 411L0 411L0 391L0 391L0 372L0 372L0 352L0 352L0 333L0 333L0 313L0 313L0 293L0 293L0 274L0 274L0 254L0 254L0 235L0 235L0 215L0 215L0 196L0 196L0 176L0 176L0 157L0 157L0 137L0 137L0 117L0 117L0 98L0 98L0 78L0 78L0 59L0 59L0 39L0 39L0 20L0 20L0 0L0 0Z" fill="#fe6627"></path><path d="M217 0L313 0L313 20L378 20L378 39L345 39L345 59L289 59L289 78L436 78L436 98L370 98L370 117L321 117L321 137L364 137L364 157L451 157L451 176L384 176L384 196L294 196L294 215L404 215L404 235L288 235L288 254L336 254L336 274L426 274L426 293L404 293L404 313L446 313L446 333L438 333L438 352L322 352L322 372L242 372L242 391L258 391L258 411L384 411L384 430L326 430L326 450L0 450L0 430L0 430L0 411L0 411L0 391L0 391L0 372L0 372L0 352L0 352L0 333L0 333L0 313L0 313L0 293L0 293L0 274L0 274L0 254L0 254L0 235L0 235L0 215L0 215L0 196L0 196L0 176L0 176L0 157L0 157L0 137L0 137L0 117L0 117L0 98L0 98L0 78L0 78L0 59L0 59L0 39L0 39L0 20L0 20L0 0L0 0Z" fill="#fd5d2b"></path><path d="M299 0L246 0L246 20L108 20L108 39L176 39L176 59L107 59L107 78L250 78L250 98L105 98L105 117L198 117L198 137L122 137L122 157L163 157L163 176L286 176L286 196L178 196L178 215L258 215L258 235L166 235L166 254L276 254L276 274L321 274L321 293L111 293L111 313L170 313L170 333L157 333L157 352L218 352L218 372L241 372L241 391L269 391L269 411L266 411L266 430L309 430L309 450L0 450L0 430L0 430L0 411L0 411L0 391L0 391L0 372L0 372L0 352L0 352L0 333L0 333L0 313L0 313L0 293L0 293L0 274L0 274L0 254L0 254L0 235L0 235L0 215L0 215L0 196L0 196L0 176L0 176L0 157L0 157L0 137L0 137L0 117L0 117L0 98L0 98L0 78L0 78L0 59L0 59L0 39L0 39L0 20L0 20L0 0L0 0Z" fill="#fc5330"></path><path d="M45 0L114 0L114 20L103 20L103 39L213 39L213 59L98 59L98 78L42 78L42 98L46 98L46 117L212 117L212 137L116 137L116 157L167 157L167 176L177 176L177 196L4 196L4 215L47 215L47 235L190 235L190 254L148 254L148 274L172 274L172 293L135 293L135 313L17 313L17 333L217 333L217 352L63 352L63 372L97 372L97 391L178 391L178 411L70 411L70 430L153 430L153 450L0 450L0 430L0 430L0 411L0 411L0 391L0 391L0 372L0 372L0 352L0 352L0 333L0 333L0 313L0 313L0 293L0 293L0 274L0 274L0 254L0 254L0 235L0 235L0 215L0 215L0 196L0 196L0 176L0 176L0 157L0 157L0 137L0 137L0 117L0 117L0 98L0 98L0 78L0 78L0 59L0 59L0 39L0 39L0 20L0 20L0 0L0 0Z" fill="#fb4934"></path></svg>